<svg xmlns="http://www.w3.org/2000/svg" version="1.1" xmlns:xlink="http://www.w3.org/1999/xlink" width="200" height="200"><svg xmlns="http://www.w3.org/2000/svg" version="1.1" xmlns:xlink="http://www.w3.org/1999/xlink" viewBox="0 0 200 200"><rect width="200" height="200" fill="url('#gradient')"></rect><defs><linearGradient id="SvgjsLinearGradient1001" gradientTransform="rotate(114 0.5 0.5)"><stop offset="0%" stop-color="#4f2ebb"></stop><stop offset="100%" stop-color="#4224a2"></stop></linearGradient></defs><g><g fill="#1b3c5d" transform="matrix(5.36960262187628,0,0,5.36960262187628,32.74631320267905,138.17725022494523)" stroke="#cc8718" stroke-width="0.5"><path d="M11.65-12.46L4.92-2.64L11.72-2.64L11.72 0L0.64 0L0.64-1.81L7.42-11.57L0.61-11.57L0.61-14.22L11.65-14.22L11.65-12.46ZM17.95 0L13.27 0L13.27-14.22L17.85-14.22Q19.74-14.22 21.24-13.36Q22.74-12.51 23.59-10.95Q24.43-9.39 24.44-7.46L24.44-7.46L24.44-6.81Q24.44-4.85 23.62-3.31Q22.79-1.76 21.29-0.88Q19.79-0.01 17.95 0L17.95 0ZM17.85-11.57L16.70-11.57L16.70-2.64L17.89-2.64Q19.37-2.64 20.16-3.69Q20.95-4.74 20.95-6.81L20.95-6.81L20.95-7.42Q20.95-9.48 20.16-10.53Q19.37-11.57 17.85-11.57L17.85-11.57Z"></path></g></g></svg><style>@media (prefers-color-scheme: light) { :root { filter: none; } }
@media (prefers-color-scheme: dark) { :root { filter: none; } }
</style></svg>